<svg xmlns="http://www.w3.org/2000/svg" viewBox="0 0 64.53 25.96"><title>Black Logo</title><g id="Layer_2" data-name="Layer 2"><g id="Layer_1-2" data-name="Layer 1"><path d="M18,0,0,12.6,7.67,26l19.67-4.09V7.81ZM14.4,18.81H12.65v-.7a2.92,2.92,0,0,1-1.25.6l-.09,0a4.8,4.8,0,0,1-1.72,0l-.09,0A3.48,3.48,0,0,1,7.3,17.33a4.49,4.49,0,0,1-.81-2.75,4.55,4.55,0,0,1,.81-2.77,3.49,3.49,0,0,1,2.22-1.37l.09,0a5.25,5.25,0,0,1,1.69,0l.09,0a2.86,2.86,0,0,1,1.28.6v-.69H14.4Zm3.58,0H16.23V6.39H18Zm5.58-6.71-1.22.15v3.92a1,1,0,0,0,.23.75.8.8,0,0,0,.53.15h.46v1.75h-.46a2.38,2.38,0,0,1-1.82-.73,2.68,2.68,0,0,1-.69-1.91V12.24l-1.22-.15V10.34l1.22.15V7.66h1.75v2.83l1.22-.15Z"/><path d="M10.44,12.09a2,2,0,0,0-1.79.81,3,3,0,0,0-.41,1.67,3,3,0,0,0,.41,1.66,2,2,0,0,0,1.79.82,2,2,0,0,0,1.78-.81,2.91,2.91,0,0,0,.42-1.66v0a2.91,2.91,0,0,0-.42-1.66A2,2,0,0,0,10.44,12.09Z"/><path d="M33.39,10.76l.09,0,.39-.05v1a2.47,2.47,0,0,0-1.63.8,3.06,3.06,0,0,0-.71,1.82h0v4.52h-1V10.67h1v1.58A2.7,2.7,0,0,1,33.39,10.76Z"/><path d="M37.73,10.65a3.6,3.6,0,0,1,2.77,1.09,4.21,4.21,0,0,1,1,3,4.21,4.21,0,0,1-1,3,4,4,0,0,1-5.53,0,4.21,4.21,0,0,1-1-3,4.21,4.21,0,0,1,1-3A3.59,3.59,0,0,1,37.73,10.65Zm0,7.17A2.65,2.65,0,0,0,39.8,17a3.29,3.29,0,0,0,.73-2.28,3.29,3.29,0,0,0-.73-2.29,3,3,0,0,0-4.14,0,3.29,3.29,0,0,0-.73,2.29A3.29,3.29,0,0,0,35.66,17,2.65,2.65,0,0,0,37.73,17.83Z"/><path d="M46.68,10.65a3.6,3.6,0,0,1,2.77,1.09,4.21,4.21,0,0,1,1,3,4.21,4.21,0,0,1-1,3,4,4,0,0,1-5.53,0,4.21,4.21,0,0,1-1-3,4.21,4.21,0,0,1,1-3A3.59,3.59,0,0,1,46.68,10.65Zm0,7.17A2.65,2.65,0,0,0,48.75,17a3.29,3.29,0,0,0,.73-2.28,3.29,3.29,0,0,0-.73-2.29,3,3,0,0,0-4.14,0,3.29,3.29,0,0,0-.73,2.29A3.29,3.29,0,0,0,44.61,17,2.65,2.65,0,0,0,46.68,17.83Z"/><path d="M64.53,18.81h-1V14.73a3.6,3.6,0,0,0-.64-2.29,2.45,2.45,0,0,0-3.52-.11,3.12,3.12,0,0,0-.72,2v4.52h-1V14.73a3.65,3.65,0,0,0-.63-2.29,2.16,2.16,0,0,0-1.81-.8,2.2,2.2,0,0,0-1.72.68,3.19,3.19,0,0,0-.72,2v4.53h-1V10.66h1v1.18a2.46,2.46,0,0,1,.89-.85,3.34,3.34,0,0,1,1.54-.34A3.37,3.37,0,0,1,56.8,11a3.13,3.13,0,0,1,1.5,1.68A2.7,2.7,0,0,1,59.56,11a3.32,3.32,0,0,1,1.54-.34,3.39,3.39,0,0,1,1.55.34A3.14,3.14,0,0,1,64,12.43a5.06,5.06,0,0,1,.49,2.3Z"/></g></g></svg>