<svg style="display: none;"><symbol viewBox="0 0 512 512" id="icon-social-500px"><title>social-500px</title> <path id="social-500px-_x35_00px-circle-outline-icon" d="M256,90c44.3,0,86,17.3,117.4,48.6C404.7,170,422,211.7,422,256s-17.3,86-48.6,117.4
	C342,404.7,300.3,422,256,422s-86-17.3-117.4-48.6C107.3,342,90,300.3,90,256s17.3-86,48.6-117.4C170,107.3,211.7,90,256,90 M256,50
	C142.2,50,50,142.2,50,256s92.2,206,206,206s206-92.2,206-206S369.8,50,256,50L256,50z M257.2,279.2c17.2,19.9,36.4,36.7,62.6,36.7
	c34.8,0,56.1-26.7,56.1-60.7c0-33.8-21.6-59-55.8-59c-28.3,0-46,18.4-62.9,38.9c-17.8-21.3-35.6-38.9-63.6-38.9
	c-32.4,0-55.5,23.5-55.5,59.7c0,36.5,24.3,60,56.8,60C224,315.9,239.4,297.8,257.2,279.2z M168.9,256.5c0-13.4,8.7-27.9,24.7-27.9
	c16.2,0,33,16.2,44.1,28.2c-10.8,12.6-26.6,26.3-43.1,26.3C178.2,283.1,168.9,271.7,168.9,256.5z M276.6,256.8
	c11.6-12.5,25.8-28.2,42.8-28.2c16.6,0,26,13.1,26,27.6c0,14.7-8.6,26.9-25,26.9C302.9,283.1,288.1,270.1,276.6,256.8z"/> </symbol><symbol viewBox="0 0 512 512" id="icon-social-codepen"><title>social-codepen</title> <path id="social-codepen-_x35_00px-circle-outline-icon" d="M256,90c44.3,0,86,17.3,117.4,48.6C404.7,170,422,211.7,422,256s-17.3,86-48.6,117.4
	C342,404.7,300.3,422,256,422s-86-17.3-117.4-48.6C107.3,342,90,300.3,90,256s17.3-86,48.6-117.4C170,107.3,211.7,90,256,90 M256,50
	C142.2,50,50,142.2,50,256s92.2,206,206,206s206-92.2,206-206S369.8,50,256,50L256,50z"/> <path d="M373.5,218.7L373.5,218.7c-1-5.7-7.3-8.6-11.7-11.7l-25-16.8l-60.9-40.6l-14.3-9.5c-3.5-2.2-7.9-2.2-11.1,0l-41.2,27.6
	L150,207.3c-5.1,3.5-11.4,6.3-11.7,13c-0.3,7.9,0,15.5,0,23.5v38c0,6.7-1.3,14.3,4.8,18.7c14.6,10.5,30.1,20,45,30.1l57.1,38
	c5.4,3.5,10.1,7.3,16.8,3.2c5.7-3.5,11.1-7.3,16.5-11.1l63.4-42.2c7.6-5.1,15.5-10.1,23.1-15.5c4.8-3.2,8.6-5.7,8.6-12.4v-65.3
	C373.8,223.4,374.2,220.9,373.5,218.7z M268.4,167.9l79.3,53l-35.2,23.5l-44.1-29.5V167.9z M248.4,167.5v47.2l-43.8,29.5l-35.5-23.8
	L248.4,167.5z M160.9,239.5l25.4,16.8l-25.4,16.8V239.5z M248.1,345.4l-79.3-53l35.5-23.8l43.8,29.5V345.4z M258.2,280.4l-35.8-23.8
	l35.8-23.8l35.8,23.8L258.2,280.4z M268.4,345.1v-47.2l43.8-29.5l35.5,23.8L268.4,345.1z M355.9,273.4l-25.4-17.1l25.4-16.8V273.4z"/> </symbol><symbol viewBox="0 0 512 512" id="icon-social-dribbble"><title>social-dribbble</title> <path d="M256,84.3c94.7,0,171.7,77,171.7,171.7s-77,171.7-171.7,171.7S84.3,350.7,84.3,256S161.3,84.3,256,84.3z M256,50
	C142.2,50,50,142.2,50,256s92.2,206,206,206s206-92.2,206-206S369.8,50,256,50z M256,153c-56.9,0-103,46.1-103,103
	c0,56.9,46.1,103,103,103s103-46.1,103-103C359,199.1,312.9,153,256,153z M340.8,251.2c-22.1-3.6-42.4-3.8-61-0.6
	c-2.1-4.8-4.3-9.6-6.6-14.4c19.8-8.6,35.8-20.3,47.6-35C332.5,214.8,339.8,232.2,340.8,251.2z M307.9,188.7
	c-10.4,13.3-24.6,23.9-42.8,31.6c-8.7-16-18.7-31.6-30-46.7c6.7-1.7,13.7-2.7,20.9-2.7C275.6,170.9,293.5,177.6,307.9,188.7z
	 M217.6,180.2c11.4,15,21.5,30.4,30.4,46.2c-20.9,6.1-45.8,9.3-74.6,9.5C179.4,211.5,195.7,191.3,217.6,180.2z M170.9,256l0.1-2.2
	c33-0.1,61.5-3.9,85.4-11.4c2,4.1,3.9,8.2,5.8,12.3c-29,9.1-52.9,27.7-71.6,55.6C178.3,295.6,170.9,276.7,170.9,256z M203.8,323
	c16.9-26.5,38.5-43.8,65.3-51.7c7.9,20.8,13.8,42.1,17.5,64C257.8,346.4,226.9,341.1,203.8,323z M303.2,326.7
	c-3.7-20.2-9.3-39.9-16.5-59.2c16.1-2.3,33.8-1.7,53.2,1.7C336.2,293.1,322.5,313.8,303.2,326.7z"/> </symbol><symbol viewBox="0 0 512 512" id="icon-social-github"><title>social-github</title> <path id="social-github-github-5-icon" d="M256,90c91.742,0,166,74.244,166,166c0,91.741-74.245,166-166,166c-91.743,0-166-74.245-166-166 C90,164.259,164.244,90,256,90z M256,50C142.229,50,50,142.229,50,256s92.229,206,206,206s206-92.229,206-206S369.771,50,256,50z M256.001,142.081c-64.506,0-116.803,52.298-116.803,116.802c0,51.604,33.467,95.395,79.883,110.832 c5.836,1.084,7.717-2.527,7.717-5.618V342.35c-32.486,7.07-39.258-13.773-39.258-13.773c-5.303-13.507-12.965-17.102-12.965-17.102 c-10.598-7.242,0.799-7.1,0.799-7.1c11.732,0.828,17.91,12.043,17.91,12.043c10.416,17.852,27.316,12.691,33.99,9.705 c1.045-7.548,4.068-12.699,7.414-15.617c-25.949-2.945-53.211-12.965-53.211-57.726c0-12.757,4.562-23.174,12.035-31.349 c-1.219-2.947-5.211-14.829,1.121-30.911c0,0,9.811-3.137,32.127,11.977c9.324-2.586,19.314-3.888,29.24-3.936 c9.924,0.048,19.932,1.35,29.256,3.936c22.301-15.114,32.09-11.977,32.09-11.977c6.359,16.083,2.357,27.964,1.15,30.911 c7.49,8.175,12.025,18.592,12.025,31.349c0,44.865-27.328,54.742-53.336,57.631c4.184,3.621,8.014,10.74,8.014,21.634 c0,15.627,0,28.213,0,32.052c0,3.109,1.873,6.749,7.795,5.608c46.387-15.465,79.807-59.229,79.807-110.822 C372.802,194.379,320.503,142.081,256.001,142.081z"/> </symbol><symbol viewBox="0 0 512 512" id="icon-social-instagram"><title>social-instagram</title> <path id="social-instagram-instagram-circle-outline-icon" d="M256,90c44.34,0,86.026,17.267,117.38,48.62C404.733,169.974,422,211.66,422,256 c0,44.34-17.267,86.026-48.62,117.38C342.026,404.732,300.34,422,256,422s-86.026-17.268-117.38-48.62 C107.267,342.026,90,300.34,90,256c0-44.34,17.267-86.026,48.62-117.38C169.974,107.267,211.66,90,256,90 M256,50 C142.229,50,50,142.229,50,256s92.229,206,206,206s206-92.229,206-206S369.771,50,256,50L256,50z M298.938,227.722h57.523v88.307 c0,21.511-17.437,38.948-38.946,38.948H198.487c-21.511,0-38.949-17.438-38.949-38.948v-88.307h57.268 c-5.862,8.235-9.321,18.3-9.321,29.178c0,27.829,22.56,50.387,50.389,50.387c27.827,0,50.387-22.559,50.387-50.387 C308.26,246.021,304.799,235.957,298.938,227.722z M356.461,195.973v25.579H293.77c-9.14-9.28-21.845-15.04-35.896-15.04 c-14.055,0-26.759,5.759-35.898,15.04h-62.437v-25.579c0-13.128,6.503-24.729,16.454-31.785v41.938h7.985v-46.297 c1.812-0.729,3.689-1.322,5.624-1.773v48.071h7.986v-49.079c0.3-0.007,0.597-0.022,0.899-0.022h4.612v49.101h7.984v-49.101h106.431 C339.024,157.025,356.461,174.462,356.461,195.973z M338.661,179.558c0-3.45-2.799-6.247-6.249-6.247h-21.054 c-3.451,0-6.247,2.797-6.247,6.247v21.518c0,3.45,2.796,6.247,6.247,6.247h21.054c3.45,0,6.249-2.797,6.249-6.247V179.558z M219.054,256.9c0-11.621,5.141-22.058,13.257-29.178c2.848-2.497,6.061-4.583,9.55-6.17c4.886-2.222,10.304-3.47,16.013-3.47 c5.708,0,11.125,1.248,16.012,3.47c3.489,1.587,6.701,3.673,9.549,6.17c8.117,7.121,13.257,17.557,13.257,29.178 c0,21.405-17.413,38.819-38.817,38.819C236.468,295.719,219.054,278.305,219.054,256.9z M229.311,256.9 c0,15.844,12.845,28.69,28.689,28.69c15.846,0,28.689-12.846,28.689-28.69c0-15.846-12.844-28.69-28.689-28.69 C242.155,228.21,229.311,241.054,229.311,256.9z"/> </symbol><symbol viewBox="0 0 512 512" id="icon-social-twitter"><title>social-twitter</title> <path id="social-twitter-twitter-5-icon" d="M256,90c91.742,0,166,74.244,166,166c0,91.741-74.245,166-166,166c-91.743,0-166-74.245-166-166 C90,164.259,164.244,90,256,90 M256,50C142.229,50,50,142.229,50,256s92.229,206,206,206s206-92.229,206-206S369.771,50,256,50 L256,50z M368.797,201.997c-7.712,3.42-15.999,5.732-24.697,6.771c8.876-5.322,15.696-13.748,18.906-23.79 c-8.311,4.928-17.512,8.506-27.307,10.435c-7.843-8.357-19.02-13.579-31.387-13.579c-27.756,0-48.16,25.902-41.889,52.8 c-35.736-1.793-67.423-18.913-88.63-44.928c-11.265,19.323-5.844,44.61,13.308,57.409c-7.049-0.223-13.682-2.158-19.478-5.379 c-0.466,19.922,13.811,38.552,34.489,42.708c-6.052,1.646-12.681,2.023-19.419,0.735c5.472,17.084,21.354,29.516,40.17,29.862 c-18.079,14.169-40.849,20.495-63.661,17.807c19.028,12.2,41.632,19.32,65.915,19.32c79.834,0,124.939-67.433,122.222-127.911 C355.741,218.194,363.031,210.62,368.797,201.997z"/> </symbol></svg>