<?xml version="1.0" encoding="utf-8"?>
<!-- Generator: Adobe Illustrator 19.2.1, SVG Export Plug-In . SVG Version: 6.00 Build 0)  -->
<svg version="1.1" id="Layer_1" xmlns="http://www.w3.org/2000/svg" xmlns:xlink="http://www.w3.org/1999/xlink" x="0px" y="0px"
	 viewBox="0 0 512 512" style="enable-background:new 0 0 512 512;" xml:space="preserve">
<path id="_x35_00px-circle-outline-icon" d="M256,90c44.3,0,86,17.3,117.4,48.6C404.7,170,422,211.7,422,256s-17.3,86-48.6,117.4
	C342,404.7,300.3,422,256,422s-86-17.3-117.4-48.6C107.3,342,90,300.3,90,256s17.3-86,48.6-117.4C170,107.3,211.7,90,256,90 M256,50
	C142.2,50,50,142.2,50,256s92.2,206,206,206s206-92.2,206-206S369.8,50,256,50L256,50z"/>
<path d="M373.5,218.7L373.5,218.7c-1-5.7-7.3-8.6-11.7-11.7l-25-16.8l-60.9-40.6l-14.3-9.5c-3.5-2.2-7.9-2.2-11.1,0l-41.2,27.6
	L150,207.3c-5.1,3.5-11.4,6.3-11.7,13c-0.3,7.9,0,15.5,0,23.5v38c0,6.7-1.3,14.3,4.8,18.7c14.6,10.5,30.1,20,45,30.1l57.1,38
	c5.4,3.5,10.1,7.3,16.8,3.2c5.7-3.5,11.1-7.3,16.5-11.1l63.4-42.2c7.6-5.1,15.5-10.1,23.1-15.5c4.8-3.2,8.6-5.7,8.6-12.4v-65.3
	C373.8,223.4,374.2,220.9,373.5,218.7z M268.4,167.9l79.3,53l-35.2,23.5l-44.1-29.5V167.9z M248.4,167.5v47.2l-43.8,29.5l-35.5-23.8
	L248.4,167.5z M160.9,239.5l25.4,16.8l-25.4,16.8V239.5z M248.1,345.4l-79.3-53l35.5-23.8l43.8,29.5V345.4z M258.2,280.4l-35.8-23.8
	l35.8-23.8l35.8,23.8L258.2,280.4z M268.4,345.1v-47.2l43.8-29.5l35.5,23.8L268.4,345.1z M355.9,273.4l-25.4-17.1l25.4-16.8V273.4z"
	/>
</svg>
