<?xml version="1.0" encoding="utf-8"?>
<!-- Generator: Adobe Illustrator 19.2.1, SVG Export Plug-In . SVG Version: 6.00 Build 0)  -->
<svg version="1.1" id="Layer_1" xmlns="http://www.w3.org/2000/svg" xmlns:xlink="http://www.w3.org/1999/xlink" x="0px" y="0px"
	 viewBox="0 0 512 512" style="enable-background:new 0 0 512 512;" xml:space="preserve">
<path id="_x35_00px-circle-outline-icon" d="M256,90c44.3,0,86,17.3,117.4,48.6C404.7,170,422,211.7,422,256s-17.3,86-48.6,117.4
	C342,404.7,300.3,422,256,422s-86-17.3-117.4-48.6C107.3,342,90,300.3,90,256s17.3-86,48.6-117.4C170,107.3,211.7,90,256,90 M256,50
	C142.2,50,50,142.2,50,256s92.2,206,206,206s206-92.2,206-206S369.8,50,256,50L256,50z M257.2,279.2c17.2,19.9,36.4,36.7,62.6,36.7
	c34.8,0,56.1-26.7,56.1-60.7c0-33.8-21.6-59-55.8-59c-28.3,0-46,18.4-62.9,38.9c-17.8-21.3-35.6-38.9-63.6-38.9
	c-32.4,0-55.5,23.5-55.5,59.7c0,36.5,24.3,60,56.8,60C224,315.9,239.4,297.8,257.2,279.2z M168.9,256.5c0-13.4,8.7-27.9,24.7-27.9
	c16.2,0,33,16.2,44.1,28.2c-10.8,12.6-26.6,26.3-43.1,26.3C178.2,283.1,168.9,271.7,168.9,256.5z M276.6,256.8
	c11.6-12.5,25.8-28.2,42.8-28.2c16.6,0,26,13.1,26,27.6c0,14.7-8.6,26.9-25,26.9C302.9,283.1,288.1,270.1,276.6,256.8z"/>
</svg>
